HIERARCHY
ROOT CG
{
	OFFSET 0.000000 0.000000 27.772259
	CHANNELS 6 Xposition Yposition Zposition Xrotation Yrotation Zrotation
	JOINT Pelvis
	{
		OFFSET 0.000000 0.000000 0.000000
		CHANNELS 3 Xrotation Yrotation Zrotation
		JOINT Spine
		{
			OFFSET -0.000017 -10.490843 -0.495483
			CHANNELS 3 Xrotation Yrotation Zrotation
			JOINT Spine1
			{
				OFFSET -0.000010 -22.678980 0.018061
				CHANNELS 3 Xrotation Yrotation Zrotation
				JOINT Spine2
				{
					OFFSET -0.000010 -22.678967 0.018061
					CHANNELS 3 Xrotation Yrotation Zrotation
					JOINT Spine3
					{
						OFFSET -0.000010 -22.678982 0.018059
						CHANNELS 3 Xrotation Yrotation Zrotation
						JOINT Neck
						{
							OFFSET -0.000012 -22.678986 -1.289251
							CHANNELS 3 Xrotation Yrotation Zrotation
							JOINT Neck1
							{
								OFFSET -0.000007 -16.255905 0.012947
								CHANNELS 3 Xrotation Yrotation Zrotation
								JOINT Head
								{
									OFFSET -0.000005 -10.784607 -0.287502
									CHANNELS 3 Xrotation Yrotation Zrotation
									JOINT Jaw01
									{
										OFFSET 0.000031 7.782959 5.073944
										CHANNELS 3 Xrotation Yrotation Zrotation
										JOINT Jaw02
										{
											OFFSET 0.000004 -34.927139 -18.883980
											CHANNELS 3 Xrotation Yrotation Zrotation
											End Site
											{
												OFFSET -0.000170 8.372803 -38.812450
											}
										}
									}
									JOINT Nose
									{
										OFFSET -0.000002 -25.700912 7.222265
										CHANNELS 3 Xrotation Yrotation Zrotation
										End Site
										{
											OFFSET -0.000090 0.641281 -21.715439
										}
									}
									JOINT L_EyeSocket
									{
										OFFSET 7.352326 -19.832718 14.164183
										CHANNELS 3 Xrotation Yrotation Zrotation
										JOINT L_Eye
										{
											OFFSET -0.000868 -0.001053 0.016003
											CHANNELS 3 Xrotation Yrotation Zrotation
											End Site
											{
												OFFSET -0.001505 -0.001846 0.027969
											}
										}
										JOINT L_Eyelid_Top
										{
											OFFSET -0.001004 -0.002625 0.032516
											CHANNELS 3 Xrotation Yrotation Zrotation
											End Site
											{
												OFFSET -0.013218 0.005753 0.024086
											}
										}
										JOINT L_Eyelid_Bottom
										{
											OFFSET -0.001194 -0.002777 0.035381
											CHANNELS 3 Xrotation Yrotation Zrotation
											End Site
											{
												OFFSET -0.010032 0.008636 -0.024754
											}
										}
									}
									JOINT R_EyeSocket
									{
										OFFSET -7.352252 -19.832748 14.164206
										CHANNELS 3 Xrotation Yrotation Zrotation
										JOINT R_Eye
										{
											OFFSET 0.000875 -0.001068 0.015991
											CHANNELS 3 Xrotation Yrotation Zrotation
											End Site
											{
												OFFSET 0.001505 -0.001846 0.027962
											}
										}
										JOINT R_Eyelid_Top
										{
											OFFSET 0.001021 -0.002625 0.032516
											CHANNELS 3 Xrotation Yrotation Zrotation
											End Site
											{
												OFFSET 0.013214 0.005753 0.024078
											}
										}
										JOINT R_Eyelid_Bottom
										{
											OFFSET 0.001170 -0.002762 0.035366
											CHANNELS 3 Xrotation Yrotation Zrotation
											End Site
											{
												OFFSET 0.010029 0.008636 -0.024746
											}
										}
									}
								}
								JOINT Neck_Fat
								{
									OFFSET 0.000044 -9.595100 -17.491512
									CHANNELS 3 Xrotation Yrotation Zrotation
									End Site
									{
										OFFSET -0.000036 15.369423 -0.000007
									}
								}
							}
						}
						JOINT L_Clavicle
						{
							OFFSET 4.567107 -11.666092 -3.750029
							CHANNELS 3 Xrotation Yrotation Zrotation
							JOINT L_UpperArm
							{
								OFFSET 20.725666 -0.000053 -0.000032
								CHANNELS 3 Xrotation Yrotation Zrotation
								JOINT L_Forearm
								{
									OFFSET 5.265112 -0.585754 -20.155697
									CHANNELS 3 Xrotation Yrotation Zrotation
									JOINT L_Hand
									{
										OFFSET 2.653017 -10.877708 -16.383667
										CHANNELS 3 Xrotation Yrotation Zrotation
										JOINT L_Finger0
										{
											OFFSET -4.206146 -4.328911 -5.034346
											CHANNELS 3 Xrotation Yrotation Zrotation
											JOINT L_Finger01
											{
												OFFSET 0.084272 -1.788536 -4.181065
												CHANNELS 3 Xrotation Yrotation Zrotation
												End Site
												{
													OFFSET 3.261885 3.094673 -0.685818
												}
											}
										}
										JOINT L_Finger1
										{
											OFFSET -1.039112 -6.775742 -3.499998
											CHANNELS 3 Xrotation Yrotation Zrotation
											JOINT L_Finger11
											{
												OFFSET 1.320335 -3.040672 -6.425793
												CHANNELS 3 Xrotation Yrotation Zrotation
												End Site
												{
													OFFSET -1.244579 6.832077 -2.013330
												}
											}
										}
										JOINT L_Finger2
										{
											OFFSET 2.531296 -5.656487 -3.286415
											CHANNELS 3 Xrotation Yrotation Zrotation
											JOINT L_Finger21
											{
												OFFSET 1.991665 -2.402016 -5.957748
												CHANNELS 3 Xrotation Yrotation Zrotation
												End Site
												{
													OFFSET -2.793068 5.800873 -1.944178
												}
											}
										}
										JOINT L_Finger3
										{
											OFFSET 5.474075 -3.302338 -2.655975
											CHANNELS 3 Xrotation Yrotation Zrotation
											JOINT L_Finger31
											{
												OFFSET 2.026943 -1.267532 -5.961166
												CHANNELS 3 Xrotation Yrotation Zrotation
												End Site
												{
													OFFSET -4.375172 4.343658 -1.800320
												}
											}
										}
										JOINT L_Finger4
										{
											OFFSET 4.825745 1.085899 -2.321970
											CHANNELS 3 Xrotation Yrotation Zrotation
											JOINT L_Finger41
											{
												OFFSET 3.358261 -1.829651 -3.744434
												CHANNELS 3 Xrotation Yrotation Zrotation
												End Site
												{
													OFFSET -3.843296 2.955200 -2.267633
												}
											}
										}
									}
								}
							}
						}
						JOINT R_Clavicle
						{
							OFFSET -4.567111 -11.666092 -3.750036
							CHANNELS 3 Xrotation Yrotation Zrotation
							JOINT R_UpperArm
							{
								OFFSET -20.725670 -0.000031 0.000038
								CHANNELS 3 Xrotation Yrotation Zrotation
								JOINT R_Forearm
								{
									OFFSET -5.265285 -0.585762 -20.155655
									CHANNELS 3 Xrotation Yrotation Zrotation
									JOINT R_Hand
									{
										OFFSET -2.653147 -10.877739 -16.383663
										CHANNELS 3 Xrotation Yrotation Zrotation
										JOINT R_Finger0
										{
											OFFSET 4.206116 -4.328888 -5.034388
											CHANNELS 3 Xrotation Yrotation Zrotation
											JOINT R_Finger01
											{
												OFFSET -0.084324 -1.788544 -4.181051
												CHANNELS 3 Xrotation Yrotation Zrotation
												End Site
												{
													OFFSET -3.261890 3.094666 -0.685791
												}
											}
										}
										JOINT R_Finger1
										{
											OFFSET 1.039101 -6.775711 -3.499994
											CHANNELS 3 Xrotation Yrotation Zrotation
											JOINT R_Finger11
											{
												OFFSET -1.320374 -3.040672 -6.425779
												CHANNELS 3 Xrotation Yrotation Zrotation
												End Site
												{
													OFFSET 1.244556 6.832077 -2.013342
												}
											}
										}
										JOINT R_Finger2
										{
											OFFSET -2.531307 -5.656464 -3.286409
											CHANNELS 3 Xrotation Yrotation Zrotation
											JOINT R_Finger21
											{
												OFFSET -1.991707 -2.402016 -5.957708
												CHANNELS 3 Xrotation Yrotation Zrotation
												End Site
												{
													OFFSET 2.793037 5.800858 -1.944197
												}
											}
										}
										JOINT R_Finger3
										{
											OFFSET -5.474091 -3.302330 -2.655947
											CHANNELS 3 Xrotation Yrotation Zrotation
											JOINT R_Finger31
											{
												OFFSET -2.026993 -1.267532 -5.961157
												CHANNELS 3 Xrotation Yrotation Zrotation
												End Site
												{
													OFFSET 4.375156 4.343674 -1.800358
												}
											}
										}
										JOINT R_Finger4
										{
											OFFSET -4.825756 1.085922 -2.321926
											CHANNELS 3 Xrotation Yrotation Zrotation
											JOINT R_Finger41
											{
												OFFSET -3.358307 -1.829651 -3.744390
												CHANNELS 3 Xrotation Yrotation Zrotation
												End Site
												{
													OFFSET 3.843273 2.955208 -2.267666
												}
											}
										}
									}
								}
							}
						}
					}
				}
			}
		}
		JOINT Tail01
		{
			OFFSET -0.000010 10.922326 -0.017508
			CHANNELS 3 Xrotation Yrotation Zrotation
			JOINT Tail02
			{
				OFFSET -0.000022 21.986111 0.000013
				CHANNELS 3 Xrotation Yrotation Zrotation
				JOINT Tail03
				{
					OFFSET -0.000022 21.986118 0.000002
					CHANNELS 3 Xrotation Yrotation Zrotation
					JOINT Tail04
					{
						OFFSET -0.000022 21.986122 0.000004
						CHANNELS 3 Xrotation Yrotation Zrotation
						JOINT Tail05
						{
							OFFSET -0.000022 21.986099 0.000010
							CHANNELS 3 Xrotation Yrotation Zrotation
							JOINT Tail06
							{
								OFFSET -0.000022 21.986099 0.000006
								CHANNELS 3 Xrotation Yrotation Zrotation
								JOINT Tail07
								{
									OFFSET -0.000022 21.986099 0.000000
									CHANNELS 3 Xrotation Yrotation Zrotation
									JOINT Tail08
									{
										OFFSET -0.000022 21.984848 0.000050
										CHANNELS 3 Xrotation Yrotation Zrotation
										JOINT Tail09
										{
											OFFSET -0.000025 21.926025 -1.606211
											CHANNELS 3 Xrotation Yrotation Zrotation
											JOINT Tail10
											{
												OFFSET -0.000027 21.750092 -3.203882
												CHANNELS 3 Xrotation Yrotation Zrotation
												End Site
												{
													OFFSET -0.000036 4.767395 21.461668
												}
											}
										}
									}
								}
							}
						}
					}
				}
			}
		}
		JOINT L_Thigh
		{
			OFFSET 24.788780 0.000021 -0.000034
			CHANNELS 3 Xrotation Yrotation Zrotation
			JOINT L_Calf
			{
				OFFSET 4.720837 4.161326 -21.049969
				CHANNELS 3 Xrotation Yrotation Zrotation
				JOINT L_Foot
				{
					OFFSET 2.154160 21.114433 -11.949743
					CHANNELS 3 Xrotation Yrotation Zrotation
					JOINT L_Toe0
					{
						OFFSET 4.557564 9.251841 -8.735286
						CHANNELS 3 Xrotation Yrotation Zrotation
						End Site
						{
							OFFSET 4.555542 -12.646044 1.018752
						}
					}
					JOINT L_Toe1
					{
						OFFSET 2.346291 5.845602 -11.687160
						CHANNELS 3 Xrotation Yrotation Zrotation
						End Site
						{
							OFFSET 5.347954 -12.298279 1.365644
						}
					}
					JOINT L_Toe2
					{
						OFFSET -0.356020 3.902458 -12.541145
						CHANNELS 3 Xrotation Yrotation Zrotation
						End Site
						{
							OFFSET 3.916235 -12.806129 1.542549
						}
					}
					JOINT L_Toe3
					{
						OFFSET -4.603447 3.183935 -12.435249
						CHANNELS 3 Xrotation Yrotation Zrotation
						End Site
						{
							OFFSET 3.810858 -12.587427 2.957583
						}
					}
					JOINT L_Toe4
					{
						OFFSET -7.144358 6.231495 -10.072764
						CHANNELS 3 Xrotation Yrotation Zrotation
						End Site
						{
							OFFSET 3.810858 -12.587425 2.957585
						}
					}
				}
			}
		}
		JOINT R_Thigh
		{
			OFFSET -24.788780 -0.000024 0.000034
			CHANNELS 3 Xrotation Yrotation Zrotation
			JOINT R_Calf
			{
				OFFSET -4.720922 4.161324 -21.049952
				CHANNELS 3 Xrotation Yrotation Zrotation
				JOINT R_Foot
				{
					OFFSET -2.154238 21.114414 -11.949730
					CHANNELS 3 Xrotation Yrotation Zrotation
					JOINT R_Toe0
					{
						OFFSET -4.557598 9.251823 -8.735270
						CHANNELS 3 Xrotation Yrotation Zrotation
						End Site
						{
							OFFSET -4.555508 -12.646051 1.018756
						}
					}
					JOINT R_Toe1
					{
						OFFSET -2.346325 5.845589 -11.687157
						CHANNELS 3 Xrotation Yrotation Zrotation
						End Site
						{
							OFFSET -5.347919 -12.298286 1.365654
						}
					}
					JOINT R_Toe2
					{
						OFFSET 0.355980 3.902462 -12.541145
						CHANNELS 3 Xrotation Yrotation Zrotation
						End Site
						{
							OFFSET -3.916199 -12.806131 1.542559
						}
					}
					JOINT R_Toe3
					{
						OFFSET 4.603411 3.183941 -12.435266
						CHANNELS 3 Xrotation Yrotation Zrotation
						End Site
						{
							OFFSET -3.810825 -12.587429 2.957591
						}
					}
					JOINT R_Toe4
					{
						OFFSET 7.144323 6.231503 -10.072779
						CHANNELS 3 Xrotation Yrotation Zrotation
						End Site
						{
							OFFSET -3.810825 -12.587433 2.957584
						}
					}
				}
			}
		}
	}
}
MOTION
Frames: 4
Frame Time: 0.033333
0.000001 10.831106 32.604721 -0.666271 -0.000002 0.000068 -8.842999 0.391197 -0.000015 15.500319 -1.439216 0.036630 2.223519 0.031960 0.000535 -5.979106 0.735244 0.146231 -13.909833 0.454951 0.075339 -5.623696 -0.001249 0.001473 -22.735471 -0.005721 -0.011628 -2.211868 -5.338790 -0.574054 -5.361322 -2.303658 0.185299 0.000008 -0.000001 0.000000 -1.120809 0.000003 0.000002 -0.000006 0.000008 -0.000018 0.000105 -0.000067 0.000019 4.008177 6.553155 0.420873 -4.916493 -7.802659 -1.115931 -0.000001 0.000000 -0.000003 0.000105 0.000067 -0.000035 4.007081 -6.553961 -0.419629 -4.918308 7.801553 1.115682 -0.000000 0.000000 0.000000 -0.001687 6.273291 16.925098 40.531736 -35.079134 -13.165929 -87.824321 23.563743 -6.671538 -0.662296 -9.017296 5.513964 3.411874 45.428643 33.182346 -0.615154 0.592435 -0.262065 30.163587 13.689880 -10.567345 -22.139245 -4.134462 -3.143260 29.274143 5.974573 -6.458527 -33.362732 -14.735151 -8.528248 20.029685 -11.893908 -8.437830 -19.552789 -18.776771 -5.440048 17.937508 -30.535993 -0.857026 -0.038541 -0.055724 -0.007333 -0.000012 -2.786365 -1.558885 15.670735 25.773697 3.547208 -60.062635 -15.578714 8.848900 -27.298798 -21.374341 -35.306525 40.299028 -35.854200 -17.897722 0.108380 0.103827 -0.046714 47.478291 -13.767130 12.962224 -5.568650 1.154651 0.638885 46.028341 -19.917651 -7.369894 -32.343309 14.390249 8.157741 23.515315 5.598923 15.400803 -10.420937 10.589159 2.153736 15.503131 25.081633 14.575692 0.555234 -0.804612 -0.101802 -5.254241 0.532430 -5.635969 -1.487569 -2.576233 6.335993 5.147690 0.547108 3.275744 5.771379 0.229240 -3.073830 4.141432 0.424960 -1.272641 -0.638804 0.271310 -4.712287 3.115033 -0.878102 -5.562668 3.377436 -2.202260 11.879961 1.599178 -1.282403 10.220023 0.879210 -0.433780 9.413981 -86.530123 -10.947415 -21.280491 52.634531 6.510176 9.906772 -29.927423 -18.440761 -7.745457 1.055249 -3.213647 -0.143889 10.425378 1.280725 0.070771 18.324723 7.376236 2.760275 19.124564 4.853097 -10.498387 -1.765493 7.023682 -9.260184 -47.566032 15.943697 16.633865 59.504813 -7.945841 -10.643511 -61.673664 39.030361 6.864241 -5.699329 -6.298129 -7.165917 6.529321 -7.844687 3.359442 16.128440 -12.909563 1.225273 12.295850 0.131098 7.124968 -3.039269 -14.829625 10.689192 
0.000001 10.274371 29.802011 -0.458087 -0.000001 0.000068 -8.845127 0.260874 0.000048 13.991444 -1.123412 -0.003775 1.675769 -0.015904 0.002066 -4.114615 0.620355 0.104441 -12.626228 0.415377 0.061676 -1.902315 -0.001250 0.003767 -20.785505 -0.005720 -0.012254 -6.090928 -6.531149 -0.637201 -5.861491 -3.888324 0.311289 0.000013 -0.000001 0.000001 -0.766757 0.000002 0.000001 -0.000009 0.000007 -0.000017 0.000110 -0.000066 0.000016 2.714632 4.432436 0.334810 -3.306600 -5.294808 -0.680831 0.000001 -0.000000 -0.000002 0.000104 0.000067 -0.000036 2.713871 -4.432988 -0.333957 -3.307838 5.294058 0.680647 -0.000005 -0.000000 -0.000000 -0.001493 5.013737 17.068615 43.685429 -36.676224 -4.402581 -91.386374 24.452878 -6.107760 -5.477282 -4.499120 8.821165 9.855189 45.098260 33.556453 0.401550 -0.383800 0.173874 34.913222 14.128313 -10.576370 -20.685530 -3.904558 -2.891030 30.988353 6.424283 -6.347422 -31.932832 -14.249361 -8.009834 20.630656 -10.839508 -9.765423 -18.389379 -17.804934 -4.957841 18.610633 -30.888246 -3.121261 0.794524 1.152268 0.143346 0.000192 4.900464 -2.053979 11.357866 16.558429 6.494439 -55.372846 -14.129950 8.801606 -34.449507 -24.731934 -38.567380 47.421969 -32.869333 -15.922197 0.108381 0.103827 -0.046714 51.258025 -13.688169 13.492520 -1.971192 0.416090 0.213452 49.370264 -23.553154 -10.154136 -32.343306 14.390252 8.157748 24.225851 4.335509 17.107677 -8.574112 8.791076 1.639197 14.982601 23.928074 17.763486 0.555234 -0.804612 -0.101799 -2.988715 -0.022808 -4.979474 -2.673918 -2.066728 5.144245 5.905179 0.477671 2.769219 4.952518 0.079541 -3.321797 3.184979 0.341646 -1.782784 -1.753949 0.443831 -5.428774 2.932530 -0.810837 -6.524086 3.305313 -2.129370 12.126207 1.615189 -1.212030 10.639795 1.007574 -0.395829 10.080434 -90.694885 -10.540133 -28.681231 57.942175 7.611870 10.490950 -29.352188 -15.380580 -4.967535 4.781857 -1.991903 0.115783 13.028320 1.715347 -0.329375 19.639391 8.171799 1.727256 17.866812 3.202668 -11.689162 -1.848887 6.689603 -10.544565 -48.684048 16.724162 21.795105 65.157710 -9.184711 -11.117238 -61.397725 39.509837 3.628067 -5.777796 -6.461283 -7.795375 6.579603 -7.779941 3.423023 16.180433 -12.834818 1.277865 11.922472 1.098214 6.703556 -2.979696 -14.775912 10.764791 
0.000001 9.788033 27.092680 -0.273508 -0.000001 0.000068 -8.849040 0.146796 0.000028 12.365692 -0.817305 -0.031275 1.029416 -0.066461 -0.001149 -2.224306 0.490231 0.066020 -11.226644 0.366788 0.049958 1.963623 -0.001251 0.005925 -18.413297 -0.005719 -0.012368 -9.778740 -7.798333 -0.613249 -6.155238 -5.492407 0.418424 0.000008 -0.000002 0.000000 -0.454693 0.000000 0.000001 -0.000009 0.000007 -0.000020 0.000103 -0.000065 0.000014 1.576743 2.569238 0.219692 -1.908097 -3.075578 -0.357191 0.000003 -0.000001 -0.000004 0.000099 0.000065 -0.000036 1.576297 -2.569563 -0.219193 -1.908816 3.075145 0.357065 -0.000001 -0.000000 0.000000 -0.001967 2.974705 17.310631 46.929567 -37.225313 7.397424 -90.375629 24.204724 -6.273716 -16.474995 2.708266 14.840826 20.359360 44.633992 34.301463 2.066106 -1.949265 0.917468 42.699399 14.849957 -10.645078 -18.332098 -3.518572 -2.494968 33.709415 7.151485 -6.194179 -29.631184 -13.435856 -7.198776 21.544230 -9.141439 -11.990177 -16.534505 -16.210645 -4.225430 19.561740 -31.552148 -6.963158 2.139617 3.114657 0.350461 0.000448 8.570809 -2.376163 9.587488 12.599586 6.873485 -54.661358 -13.909891 8.783722 -37.318016 -26.434065 -38.262003 50.824076 -31.319180 -15.130708 0.108377 0.103823 -0.046714 53.133612 -13.635754 13.752170 -0.187464 0.039902 0.019689 50.991658 -25.413078 -11.477620 -32.343306 14.390249 8.157743 24.592883 3.716151 17.959798 -7.666593 7.892654 1.406465 14.749471 23.343997 19.329142 0.555237 -0.804614 -0.101798 -0.726542 -0.560675 -4.295430 -3.874152 -1.460229 4.046219 6.619246 0.315515 2.320430 4.147851 -0.117025 -3.646837 2.218022 0.221118 -2.379840 -2.837194 0.567299 -6.204989 2.667833 -0.776836 -7.440827 3.221152 -2.062653 12.403500 1.618786 -1.149567 11.090103 1.145581 -0.396271 10.754391 -94.062353 -10.030801 -36.324797 61.829748 8.449975 10.852980 -28.154542 -11.632403 -1.984369 9.169587 -0.530624 0.313005 16.083291 2.197357 -0.817810 21.223406 9.081438 0.481270 16.326100 1.286506 -13.151706 -1.957282 6.298898 -12.049623 -49.028102 17.730167 27.398776 69.639386 -10.194324 -11.404085 -59.484937 38.744221 -0.848847 -5.869383 -6.641159 -8.544583 6.635129 -7.710467 3.491524 16.236210 -12.754061 1.334382 11.487231 2.252519 6.210073 -2.915765 -14.717652 10.845902 
0.000001 9.388279 24.895832 -0.118763 -0.000000 0.000061 -8.851421 0.057534 0.000000 10.900860 -0.550934 -0.046737 0.435330 -0.109238 -0.004160 -0.491982 0.369001 0.033517 -9.797607 0.319792 0.040017 5.539957 -0.001253 0.007769 -15.780621 -0.005718 -0.011881 -12.789330 -9.062715 -0.525936 -6.472159 -6.860245 0.492917 0.000009 -0.000002 0.000000 -0.200430 -0.000000 0.000000 -0.000007 0.000007 -0.000022 0.000106 -0.000066 0.000014 0.656056 1.066600 0.099830 -0.789539 -1.278288 -0.135789 -0.000001 -0.000001 -0.000004 0.000103 0.000067 -0.000038 0.655865 -1.066736 -0.099618 -0.789837 1.278108 0.135742 -0.000000 -0.000000 0.000000 -0.002102 0.651946 17.582109 46.832903 -36.198630 16.394407 -84.710123 22.754285 -7.115151 -29.088283 9.244956 22.509631 31.982525 44.217501 35.185358 3.988660 -3.704282 1.820382 51.454489 15.630787 -10.872157 -15.657025 -3.059796 -2.063977 36.931506 7.999135 -6.054000 -27.034589 -12.472166 -6.320215 22.892969 -7.297884 -14.430962 -14.465601 -14.369212 -3.463654 20.823713 -32.285225 -11.011216 3.666609 5.354166 0.530532 0.000391 9.367768 -2.573560 8.975129 12.137636 6.408226 -56.281230 -14.410915 8.820355 -37.044470 -26.875655 -34.772869 51.753658 -30.891491 -14.931536 0.108379 0.103830 -0.046709 53.649548 -13.624188 13.816384 0.303489 -0.064735 -0.031598 51.435798 -25.926939 -11.840123 -32.343302 14.390252 8.157746 24.694737 3.546270 18.194898 -7.417680 7.644623 1.344990 14.687489 23.182591 19.758984 0.555237 -0.804619 -0.101801 1.193470 -0.987697 -3.632886 -4.822311 -0.940110 3.156077 7.187921 0.109065 1.978827 3.414646 -0.332456 -4.126183 1.341705 0.072804 -3.081822 -3.765395 0.598476 -7.031839 2.384176 -0.787371 -8.241281 3.167107 -2.023522 12.622116 1.646478 -1.140309 11.474843 1.295384 -0.477695 11.344553 -95.967115 -10.021476 -43.165525 63.661659 8.852652 11.003636 -26.788202 -7.758815 0.620047 13.553764 0.940791 0.397151 19.140852 2.659493 -1.329256 22.833077 9.950654 -0.808609 14.739594 -0.579415 -14.662277 -2.077666 5.913626 -13.554632 -48.535936 19.015168 32.540660 72.120405 -10.760889 -11.528293 -56.216405 37.030502 -5.368489 -6.109722 -7.087549 -10.354276 6.768114 -7.532386 3.664317 16.375382 -12.549236 1.476864 10.481276 5.056286 5.051472 -2.754525 -14.570253 11.050762 
